# xmcd CD database file
#
# Track frame offsets:
#	150
#	13017
#	25368
#	31938
#	49779
#	65042
#	80416
#	96809
#	112113
#	132252
#	149883
#	164309
#	177105
#
# Disc length: 2595 seconds
#
# Revision: 0
# Processed by: cddbd v1.4PL0 Copyright (c) Steve Scherf et al.
# Submitted via: CDex 1.50Beta7
#
DISCID=b60a210d
DTITLE=Henri Salvador - Chambre Avec Vue
DYEAR=2001
DGENRE=Blues
TTITLE0=Jardin D'hiver
TTITLE1=Chambre Avec Vue
TTITLE2=J'ai Vu
TTITLE3=Il Fait Dimanche
TTITLE4=La Muraille De Chine
TTITLE5=Jazz Méditerranée
TTITLE6=Un Tour De Manège
TTITLE7=Vagabond
TTITLE8=Je Sais Que Tu Sais
TTITLE9=Mademoiselle
TTITLE10=Le Fou De La Reine
TTITLE11=Faire Des Ronds Dans L'eau
TTITLE12=Aime-Moi
EXTD=YEAR: 2001
EXTT0=
EXTT1=
EXTT2=
EXTT3=
EXTT4=
EXTT5=
EXTT6=
EXTT7=
EXTT8=
EXTT9=
EXTT10=
EXTT11=
EXTT12=
PLAYORDER=
